<svg width="101" height="34" viewBox="0 0 101 34" fill="none" xmlns="http://www.w3.org/2000/svg">
<path d="M8.28 7.724C7.272 8.012 6.336 8.12 5.436 8.048C2.664 7.76 0.972 6.932 1.008 4.664C1.044 1.82 3.636 0.667998 8.712 0.667998C12.708 0.667998 14.616 1.856 16.236 3.692C16.488 4.016 17.136 3.548 16.92 3.224C16.596 2.72 15.48 1.748 14.58 1.352C17.172 0.775999 18.9 0.631998 22.212 0.667998C26.82 0.704 29.628 1.388 30.924 3.908C32.04 6.176 31.464 9.704 30.24 11.324C29.268 12.728 27.756 13.484 25.38 13.484C22.032 13.484 19.656 12.26 21.564 7.364C20.484 7.616 19.044 7.724 18.108 7.724C18.108 12.872 15.372 13.484 12.312 13.484C8.208 13.484 6.192 11.828 8.28 7.724ZM12.456 24.536C10.368 25.22 8.028 25.652 5.796 25.76C3.168 25.904 2.16 24.644 2.16 22.988C2.16 21.44 3.168 20.324 5.112 20.432C6.984 20.576 8.964 20.648 10.98 20.72C10.944 20.396 10.944 20.072 10.944 19.712C10.944 19.532 10.944 19.352 10.944 19.208C8.604 19.136 6.336 19.028 4.248 18.848C2.196 18.704 0.936 17.948 0.936 16.328C0.936 14.96 2.196 13.844 4.248 13.988C11.952 14.492 21.852 14.456 29.844 13.988C31.932 13.844 33.192 14.96 33.192 16.328C33.192 17.948 31.932 18.74 29.808 18.848C27.684 19.028 25.452 19.136 23.148 19.208C23.148 19.388 23.148 19.532 23.148 19.712C23.148 20.072 23.148 20.432 23.112 20.756C25.164 20.684 27.144 20.576 29.016 20.432C30.996 20.324 31.932 21.224 31.932 22.628C31.932 23.816 31.032 24.824 29.736 24.86C25.74 24.932 21.888 26.048 19.368 27.812C18.9 28.136 19.188 28.856 19.764 28.496C21.996 27.2 24.696 26.012 27.612 25.904C30.492 25.868 32.22 27.236 32.22 29.396C32.22 31.664 30.492 32.636 27.252 32.852C20.268 33.32 12.384 33.248 5.796 32.816C3.312 32.672 1.836 31.988 1.836 30.116C1.836 27.956 3.636 26.768 6.156 26.588C8.388 26.372 10.44 26.12 12.708 25.364C13.212 25.184 12.96 24.32 12.456 24.536ZM64.699 16.796C64.627 17.732 64.519 18.596 64.411 19.352C64.087 21.728 62.323 22.88 59.803 22.88C56.887 22.88 55.015 21.584 55.375 18.884C55.915 14.924 55.879 8.372 55.411 4.664C54.979 1.712 56.887 0.415999 59.803 0.415999C62.323 0.415999 64.087 1.532 64.411 3.944C64.519 4.628 64.591 5.384 64.663 6.212L65.743 6.104C67.399 5.888 68.371 7.508 68.371 11.504C68.371 15.428 67.399 17.048 65.743 16.904L64.699 16.796ZM44.611 8.192C44.935 9.164 45.007 10.1 44.863 11C43.819 11.324 43.171 11.54 42.415 11.972C41.947 12.188 42.199 12.908 42.811 12.656C44.359 11.9 45.871 11.36 48.535 11.324C51.775 11.324 53.899 12.548 54.439 14.888C55.015 17.264 53.539 18.884 50.479 19.64C48.391 20.108 45.799 20.216 43.315 20.216C38.671 20.216 36.511 18.452 35.791 15.68C34.999 12.548 34.999 8.552 35.791 5.456C36.511 2.648 38.311 1.244 41.371 0.991998C44.071 0.739999 46.663 0.704 49.327 0.919999C52.351 1.1 54.007 2.288 54.007 4.484C54.007 6.752 52.531 8.192 49.327 8.192H44.611ZM46.447 29.18C45.907 29.504 46.339 30.224 46.879 29.828C50.695 27.02 54.439 23.78 59.839 23.78C62.503 23.78 64.879 24.824 65.167 27.488C65.491 30.404 63.979 32.276 59.767 32.78C55.231 33.356 49.219 33.464 42.415 33.032C38.203 32.78 36.007 30.152 36.007 27.2C36.007 23.6 37.807 21.44 40.399 21.044C43.315 20.54 46.339 21.584 47.275 23.888C47.887 25.4 47.815 28.172 46.447 29.18ZM95.5581 33.5C92.6421 33.5 90.6621 31.844 91.0221 28.604C91.9221 20.864 91.9221 13.088 91.0581 5.672C90.6621 2.108 92.6421 0.415999 95.5581 0.415999C98.0781 0.415999 99.8781 1.856 100.166 4.808C100.958 12.584 100.958 21.368 100.166 29.18C99.8781 32.06 98.0781 33.5 95.5581 33.5ZM73.4181 9.2C70.6101 8.984 69.3501 7.328 69.3501 5.42C69.3501 3.476 70.6821 1.676 73.5981 1.568C75.7221 1.46 77.5581 1.46 79.6821 1.46C81.7341 1.46 83.6421 1.46 85.7301 1.568C88.5741 1.676 89.9421 3.476 89.9421 5.42C89.9421 7.328 88.6461 8.948 85.9461 9.2C86.2701 10.964 86.9901 12.188 87.8541 13.556C89.0421 15.464 90.2661 17.48 90.0501 23.924C89.7981 30.98 88.6101 32.24 86.0181 32.24C82.7061 32.24 81.5541 31.124 81.5541 23.888C81.5541 21.116 81.1941 18.632 80.6181 16.868C80.2941 15.896 79.1421 16.184 79.4301 17.084C80.0061 18.704 80.4381 21.224 80.4381 24.428C80.4381 30.98 79.0701 32.096 75.0381 32.096C71.6181 32.096 69.4941 29.684 69.3501 23.6C69.2061 18.164 70.5021 15.932 72.0141 13.628C72.8781 12.332 73.2741 11.18 73.4181 9.2Z" fill="url(#paint0_linear_173_27)"/>
<defs>
<linearGradient id="paint0_linear_173_27" x1="-44.7607" y1="-4.38365" x2="136.125" y2="60.7815" gradientUnits="userSpaceOnUse">
<stop stop-color="#FF8A00"/>
<stop offset="1" stop-color="#FFC300" stop-opacity="0.6"/>
</linearGradient>
</defs>
</svg>
